<svg width="317" height="418" viewBox="0 0 317 418" fill="none" xmlns="http://www.w3.org/2000/svg">
<path d="M82.6242 238.768L46.8575 225.5L57.1295 196.675L63.3918 179.101L124.899 201.019L139.924 226.179L104.438 325.762L115.369 329.658L185.194 281.921L203.981 229.2L227.412 237.55L250.843 245.899L226.838 313.265L117.028 383.062L58.449 362.188L47.1377 338.352L82.6242 238.768Z" fill="white"/>
<path d="M234.376 179.231L270.142 192.5L259.871 221.325L253.608 238.899L192.101 216.981L177.076 191.821L212.562 92.2376L201.631 88.3423L131.806 136.079L113.019 188.8L89.588 180.45L66.1566 172.1L90.1622 104.735L199.972 34.9374L258.551 55.8119L269.862 79.6478L234.376 179.231Z" fill="white"/>
</svg>
